<svg id="Layer_1" data-name="Layer 1" xmlns="http://www.w3.org/2000/svg" viewBox="0 0 28.04 25"><defs><style>.cls-1{fill:#e45027;}</style></defs><title>flag_checkbox</title><path class="cls-1" d="M10.81,14.07l10.6-12.7c1.48-1.78,1.91-1.8,3.54-.19.8.8,1.59,1.61,2.4,2.4A1.56,1.56,0,0,1,27.49,6q-7.67,9.06-15.33,18.13c-1,1.14-1.7,1.15-2.68,0-3-3.44-6-6.91-9-10.36A1.55,1.55,0,0,1,.6,11.39c1-.93,1.91-1.87,2.83-2.84a1.58,1.58,0,0,1,2.72.1C7.64,10.42,9.16,12.16,10.81,14.07Z" transform="translate(0.04)"/></svg>